# xmcd
#
# Track frame offsets:
# 150
# 18870
# 40230
# 54605
# 71742
# 92465
# 107857
# 121467
# 142372
# 160070
# 180510
# 201262
# 217260
# 233200
#
# Disc length: 3403 seconds
#
#
# Revision: 0
# Processed by: cddbd v1.5.2PL0 Copyright (c) Steve Scherf et al.
# Submitted via: FreeRIP 2.96 
#
DISCID=cf0d490e
DTITLE=SUPER 3-DANIEL-CD1 - 
DYEAR=2009
DGENRE=
TTITLE0=DIFICIL NÃO FALAR DE AMOR
TTITLE1=ADORO AMAR VOCÊ
TTITLE2=SOU MALUCO POR MULHER
TTITLE3=ESPERANÇA
TTITLE4=OS AMANTES
TTITLE5=A PRIMEIRA LETRA
TTITLE6=SÓ DÁ VOCÊ NA MINHA VIDA
TTITLE7=MEU PAI
TTITLE8=QUANDO O CORAÇÃO SE APAIXONA
TTITLE9=PRA FALAR A VERDADE
TTITLE10=UM HOMEM APAIXONADO
TTITLE11=MEU REINO ENCANTADO
TTITLE12=EU SEM VOCÊ
TTITLE13=ESTOU APAIXONADO
EXTD=
EXTT0=
EXTT1=
EXTT2=
EXTT3=
EXTT4=
EXTT5=
EXTT6=
EXTT7=
EXTT8=
EXTT9=
EXTT10=
EXTT11=
EXTT12=
EXTT13=
PLAYORDER=
